# xmcd CD database file
#
# Track frame offsets:
#	183
#	18030
#	32908
#	46123
#	55223
#	68400
#	77983
#	90868
#	103385
#	113058
#	125918
#	136203
#	149548
#	164180
#	176000
#	186048
#	199683
#	211318
#	224055
#	237230
#
# Disc length: 3302 seconds
#
# Revision: 1
# Processed by: cddbd v1.4PL0 Copyright (c) Steve Scherf et al.
# Submitted via: CDex 1.50beta9
#
DISCID=270ce414
DTITLE=Lightning Slim - King of the Swamp Blues
DYEAR=1900
DGENRE=Blues
TTITLE0=That's All Right 
TTITLE1=Rock Me Mama 
TTITLE2=Love Me For Myself 
TTITLE3=Paper In My Shoe 
TTITLE4=You Did Me Wrong Baby 
TTITLE5=Poor Lightnin' Blues 
TTITLE6=Woke Up Feelin' Bad 
TTITLE7=Bad Luck 
TTITLE8=I'm Him 
TTITLE9=Strange Letter Blues 
TTITLE10=She's Gone 
TTITLE11=Don't Mistreat Me 
TTITLE12=Those Neighbours Of Mine 
TTITLE13=I Beg You Little Woman 
TTITLE14=I Just Don't Know 
TTITLE15=The Blues And My Woman 
TTITLE16=I'm Goin' Join The Army 
TTITLE17=Black Cat Blues 
TTITLE18=I'm Tired Of Waiting Baby 
TTITLE19=Mary Lee 
EXTD=
EXTT0=
EXTT1=
EXTT2=
EXTT3=
EXTT4=
EXTT5=
EXTT6=
EXTT7=
EXTT8=
EXTT9=
EXTT10=
EXTT11=
EXTT12=
EXTT13=
EXTT14=
EXTT15=
EXTT16=
EXTT17=
EXTT18=
EXTT19=
PLAYORDER=
